HIERARCHY
ROOT Hips
{
	OFFSET -0.001795 -0.223333 0.028219
	CHANNELS 6 Xposition Yposition Zposition Zrotation Yrotation Xrotation 
	JOINT LeftUpLeg
	{
		OFFSET 0.069520 -0.091406 -0.006815
		CHANNELS 3 Zrotation Yrotation Xrotation
		JOINT LeftLeg
		{
			OFFSET 0.034277 -0.375199 -0.004496
			CHANNELS 3 Zrotation Yrotation Xrotation
			JOINT LeftFoot
			{
				OFFSET -0.013596 -0.397961 -0.043693
				CHANNELS 3 Zrotation Yrotation Xrotation
				JOINT LeftToe
				{
					OFFSET 0.026358 -0.055791 0.119288
					CHANNELS 3 Zrotation Yrotation Xrotation
					End Site
					{
						OFFSET 0.000000 0.000000 0.000000
					}
				}
			}
		}
	}
	JOINT RightUpLeg
	{
		OFFSET -0.067670 -0.090522 -0.004320
		CHANNELS 3 Zrotation Yrotation Xrotation
		JOINT RightLeg
		{
			OFFSET -0.038290 -0.382569 -0.008850
			CHANNELS 3 Zrotation Yrotation Xrotation
			JOINT RightFoot
			{
				OFFSET 0.015774 -0.398415 -0.042312
				CHANNELS 3 Zrotation Yrotation Xrotation
				JOINT RightToe
				{
					OFFSET -0.025372 -0.048144 0.123348
					CHANNELS 3 Zrotation Yrotation Xrotation
					End Site
					{
						OFFSET 0.000000 0.000000 0.000000
					}
				}
			}
		}
	}
	JOINT Spine
	{
		OFFSET -0.002533 0.108963 -0.026696
		CHANNELS 3 Zrotation Yrotation Xrotation
		JOINT Spine1
		{
			OFFSET 0.005487 0.135180 0.001092
			CHANNELS 3 Zrotation Yrotation Xrotation
			JOINT Spine2
			{
				OFFSET 0.001457 0.052922 0.025425
				CHANNELS 3 Zrotation Yrotation Xrotation
				JOINT Neck
				{
					OFFSET -0.002778 0.213870 -0.042857
					CHANNELS 3 Zrotation Yrotation Xrotation
					JOINT Head
					{
						OFFSET 0.005152 0.064970 0.051349
						CHANNELS 3 Zrotation Yrotation Xrotation
						End Site
						{
							OFFSET 0.000000 0.000000 0.000000
						}
					}
				}
				JOINT LeftShoulder
				{
					OFFSET 0.078845 0.121749 -0.034090
					CHANNELS 3 Zrotation Yrotation Xrotation
					JOINT LeftArm
					{
						OFFSET 0.090977 0.030469 -0.008868
						CHANNELS 3 Zrotation Yrotation Xrotation
						JOINT LeftForeArm
						{
							OFFSET 0.259612 -0.012772 -0.027456
							CHANNELS 3 Zrotation Yrotation Xrotation
							JOINT LeftHand
							{
								OFFSET 0.249234 0.008986 -0.001171
								CHANNELS 3 Zrotation Yrotation Xrotation
								End Site
								{
									OFFSET 0.000000 0.000000 0.000000
								}
							}
						}
					}
				}
				JOINT RightShoulder
				{
					OFFSET -0.081759 0.118833 -0.038615
					CHANNELS 3 Zrotation Yrotation Xrotation
					JOINT RightArm
					{
						OFFSET -0.096012 0.032551 -0.009143
						CHANNELS 3 Zrotation Yrotation Xrotation
						JOINT RightForeArm
						{
							OFFSET -0.253742 -0.013329 -0.021401
							CHANNELS 3 Zrotation Yrotation Xrotation
							JOINT RightHand
							{
								OFFSET -0.255298 0.007772 -0.005559
								CHANNELS 3 Zrotation Yrotation Xrotation
								End Site
								{
									OFFSET 0.000000 0.000000 0.000000
								}
							}
						}
					}
				}
			}
		}
	}
}
MOTION
Frames: 18
Frame Time: 0.050000
0.000000 0.957655 0.000000 0.097745 -1.815103 8.068303 -0.865921 -0.337867 -3.647913 0.074163 0.024530 -0.952909 0.053866 4.636611 12.550108 0.000000 0.000000 0.000000 0.855512 0.733958 -7.205242 -4.113617 0.606787 2.542947 0.214839 -3.834624 9.286533 0.000000 0.000000 0.000000 3.336846 0.097354 -3.034714 -1.502687 0.805920 -13.438199 -2.735421 1.630188 9.301008 2.228960 -0.447759 -12.951805 0.000000 0.000000 0.000000 16.529642 8.560023 -0.263434 -10.108402 -18.018520 -0.633461 10.489376 11.816013 0.709129 0.000000 0.000000 0.000000 -17.948429 -14.276849 -1.477420 14.564023 10.251381 -0.734571 -9.854027 -7.097403 0.648540 0.000000 0.000000 0.000000 
-0.000451 0.957320 0.001918 -0.377817 -2.127845 8.093153 -0.134126 -0.232116 -2.511718 -0.341807 0.119941 -2.673081 0.130308 4.744923 12.650999 0.000000 0.000000 0.000000 0.774049 0.577186 -5.779239 -4.246472 0.421588 0.006312 2.072811 -0.471453 10.168500 0.000000 0.000000 0.000000 4.669883 0.093652 -3.139449 -2.007116 0.956781 -12.034781 -3.381026 1.926982 6.259969 0.961838 0.454318 -13.256313 0.000000 0.000000 0.000000 17.309414 8.951011 -0.010040 -7.177139 -17.182079 -0.687362 5.267640 10.029465 0.121996 0.000000 0.000000 0.000000 -19.476655 -15.480527 -1.278243 13.510842 11.055612 -0.580000 -7.324576 -5.288917 0.364801 0.000000 0.000000 0.000000 
-0.000732 0.957026 0.003057 -0.221594 -3.545299 7.426362 -0.098936 -0.168079 -1.783797 -1.075880 0.178142 -2.326004 0.775382 5.638814 12.710839 0.000000 0.000000 0.000000 0.072229 0.564377 -5.701980 -2.959220 0.351973 0.972249 1.803239 -0.921719 9.569209 0.000000 0.000000 0.000000 4.789178 0.029804 -2.212496 -2.069551 0.955362 -13.858316 -3.766855 4.282785 8.011398 1.906466 0.025650 -13.596991 0.000000 0.000000 0.000000 19.172273 10.464469 0.256798 -7.477940 -19.859867 -0.713433 4.578063 11.456891 0.043734 0.000000 0.000000 0.000000 -19.530145 -16.714904 -1.891965 13.784293 12.134179 -0.557098 -8.408707 -5.525459 0.481147 0.000000 0.000000 0.000000 
-0.001087 0.956506 0.003622 -0.112377 -3.544763 7.570616 -0.231015 -0.160107 -1.713442 -1.018600 0.181332 -2.666745 0.769321 5.617806 12.667062 0.000000 0.000000 0.000000 -0.262302 0.574534 -5.806975 -2.676544 0.299576 0.630539 1.979235 -0.776157 10.024152 0.000000 0.000000 0.000000 4.725196 0.052371 -2.492912 -2.122191 0.969001 -12.533785 -3.622587 3.650946 6.784747 0.627385 0.734208 -12.963658 0.000000 0.000000 0.000000 19.208474 10.308990 0.238394 -5.898463 -18.629600 -0.762212 2.746688 10.806122 -0.127649 0.000000 0.000000 0.000000 -19.753981 -16.031704 -1.540875 11.606025 13.151464 -0.507928 -5.859639 -6.881845 0.305461 0.000000 0.000000 0.000000 
-0.001504 0.956597 0.003615 0.255288 -3.332697 7.306351 -0.539038 -0.110507 -1.238241 -1.069424 0.195933 -3.068822 0.565252 5.365443 12.854126 0.000000 0.000000 0.000000 -0.460158 0.559997 -5.663496 -2.759599 0.325953 0.882747 1.592813 -1.456128 9.862177 0.000000 0.000000 0.000000 4.267534 0.029936 -2.121318 -1.992399 0.930289 -12.497250 -3.699831 3.684783 6.462369 0.168382 1.029594 -12.735411 0.000000 0.000000 0.000000 20.047883 9.785334 0.533651 -5.628208 -18.577135 -0.770957 2.802694 10.669268 -0.122495 0.000000 0.000000 0.000000 -20.445727 -15.531529 -1.348403 12.054690 12.620890 -0.513877 -5.990777 -6.434269 0.308588 0.000000 0.000000 0.000000 
-0.001771 0.956502 0.003080 0.540400 -3.327079 7.133980 -0.788953 -0.091607 -1.082783 -1.138821 0.202899 -3.103783 0.518954 5.310292 12.917531 0.000000 0.000000 0.000000 -0.766806 0.529928 -5.354701 -2.807795 0.316885 0.663360 1.661250 -1.218542 9.654576 0.000000 0.000000 0.000000 4.120428 0.023406 -1.985461 -2.016722 0.938391 -12.172539 -3.831412 3.586169 6.231732 0.368433 0.868239 -12.400357 0.000000 0.000000 0.000000 20.343072 10.129240 0.536658 -5.051024 -18.670462 -0.797395 2.735938 10.075553 -0.119739 0.000000 0.000000 0.000000 -20.542645 -15.218200 -1.254095 12.261677 13.168369 -0.470927 -6.126993 -5.629717 0.299082 0.000000 0.000000 0.000000 
-0.001962 0.956235 0.001888 0.603577 -3.443359 6.834105 -0.791126 -0.077984 -0.937703 -1.260123 0.209056 -2.901090 0.589468 5.382387 12.808591 0.000000 0.000000 0.000000 -0.974344 0.503569 -5.076370 -2.823596 0.297862 0.352640 2.094719 -0.545007 10.060897 0.000000 0.000000 0.000000 4.008075 -0.014461 -1.422401 -1.959892 0.917176 -12.515709 -3.811860 4.024301 6.413248 0.734901 0.708481 -12.897801 0.000000 0.000000 0.000000 20.470852 9.720218 0.687425 -4.479195 -18.375993 -0.828238 2.655207 9.736211 -0.124609 0.000000 0.000000 0.000000 -19.733035 -15.076066 -1.476037 12.372244 13.348153 -0.466506 -6.365258 -4.670486 0.294939 0.000000 0.000000 0.000000 
-0.002126 0.956173 0.000241 0.436579 -3.270789 6.624978 -0.706972 -0.086514 -1.011952 -1.016301 0.178247 -2.550570 0.578385 5.331624 12.603273 0.000000 0.000000 0.000000 -0.910740 0.496217 -5.001660 -3.167262 0.344356 0.503588 2.863627 0.979637 10.184210 0.000000 0.000000 0.000000 3.955951 -0.043288 -1.004640 -1.691584 0.827196 -12.224218 -3.978127 3.972376 6.018120 1.520813 0.128062 -12.027281 0.000000 0.000000 0.000000 20.531356 9.796454 0.731586 -3.750649 -17.712812 -0.839724 2.278911 8.986260 -0.143913 0.000000 0.000000 0.000000 -18.648128 -14.787128 -1.633571 12.634032 13.888604 -0.421059 -6.541664 -4.279368 0.296881 0.000000 0.000000 0.000000 
-0.002395 0.956226 -0.001768 0.216954 -3.289193 6.556454 -0.459315 -0.111141 -1.227067 -0.995505 0.168391 -2.236224 0.645949 5.405827 12.480540 0.000000 0.000000 0.000000 -0.959089 0.516996 -5.225128 -2.949186 0.324458 0.542823 3.419044 1.750238 10.865119 0.000000 0.000000 0.000000 3.909871 -0.064051 -0.706478 -1.586632 0.794173 -12.714771 -3.714764 4.479295 6.429645 1.701835 0.053518 -12.093672 0.000000 0.000000 0.000000 20.633731 9.793311 0.814962 -3.280119 -17.855182 -0.877130 2.951113 8.623142 -0.087880 0.000000 0.000000 0.000000 -17.372691 -14.827802 -1.982589 13.499879 14.289907 -0.383351 -7.559385 -3.258786 0.332876 0.000000 0.000000 0.000000 
-0.002822 0.956285 -0.003885 -0.166166 -3.179685 6.512072 -0.131172 -0.130396 -1.391152 -0.751511 0.140606 -2.065399 0.674223 5.417872 12.307762 0.000000 0.000000 0.000000 -0.663291 0.546373 -5.531654 -3.120774 0.352767 0.686663 4.149888 2.794362 11.680990 0.000000 0.000000 0.000000 3.876064 -0.074743 -0.547788 -1.207115 0.667762 -12.713630 -3.544674 4.822858 6.409446 2.098150 -0.270120 -11.212711 0.000000 0.000000 0.000000 20.735309 9.692927 0.928281 -2.856441 -17.488770 -0.885908 3.607832 8.206919 -0.037734 0.000000 0.000000 0.000000 -15.959677 -14.604519 -2.268273 14.849233 14.487805 -0.328708 -9.126117 -1.855554 0.362883 0.000000 0.000000 0.000000 
-0.003202 0.955654 -0.005958 -0.520472 -3.032692 6.382073 0.259024 -0.165885 -1.743049 -0.669920 0.114032 -1.395792 0.747795 5.429343 11.835154 0.000000 0.000000 0.000000 -0.435091 0.547239 -5.530512 -3.039383 0.349001 0.743980 4.506740 3.501697 11.731005 0.000000 0.000000 0.000000 3.787696 -0.080918 -0.418010 -1.032654 0.608012 -12.442732 -3.160540 4.886144 6.181473 1.824702 -0.111740 -10.924688 0.000000 0.000000 0.000000 20.620885 10.045744 0.886563 -2.360350 -17.371961 -0.899681 5.255098 8.009751 0.076334 0.000000 0.000000 0.000000 -14.570950 -14.164008 -2.429236 16.849236 14.539831 -0.248492 -10.909915 -0.353234 0.356528 0.000000 0.000000 0.000000 
-0.003400 0.955424 -0.007937 -1.018024 -2.869345 6.438797 0.660750 -0.210770 -2.232896 -0.350766 0.064622 -0.830168 0.814677 5.458806 11.470121 0.000000 0.000000 0.000000 -0.057805 0.575495 -5.790347 -2.906982 0.355663 1.044228 4.768327 4.078841 11.680062 0.000000 0.000000 0.000000 3.860706 -0.094632 -0.272070 -0.766248 0.524264 -12.741353 -2.697131 5.472587 6.261462 1.841441 -0.148393 -10.261938 0.000000 0.000000 0.000000 21.095244 9.847825 1.125349 -2.453544 -17.262845 -0.897842 7.010077 7.901758 0.184370 0.000000 0.000000 0.000000 -12.822052 -14.326731 -2.873858 19.595056 14.225189 -0.198428 -13.651407 2.637234 0.224114 0.000000 0.000000 0.000000 
-0.003254 0.955241 -0.009716 -1.540552 -2.855057 6.605727 0.984114 -0.269838 -2.934477 0.073755 -0.006061 -0.056619 0.972348 5.625636 11.114112 0.000000 0.000000 0.000000 0.293703 0.622877 -6.219786 -2.971824 0.390385 1.454456 5.389003 5.352486 11.643130 0.000000 0.000000 0.000000 3.747510 -0.084405 -0.393797 -0.253167 0.347235 -12.634692 -2.103244 5.709675 6.317785 1.351070 0.195674 -10.279948 0.000000 0.000000 0.000000 21.065794 10.526895 1.046253 -2.540058 -17.079675 -0.887238 9.255296 7.750827 0.318619 0.000000 0.000000 0.000000 -10.950752 -14.444594 -3.246086 22.654996 14.143610 -0.111437 -16.151330 5.882321 -0.068630 0.000000 0.000000 0.000000 
-0.002861 0.955298 -0.011356 -2.127245 -2.502390 6.472209 1.618819 -0.277583 -3.062345 0.139807 -0.023241 0.232965 0.893177 5.451929 10.820959 0.000000 0.000000 0.000000 0.558046 0.651168 -6.444226 -2.830012 0.405095 1.889485 6.154764 6.578130 12.255716 0.000000 0.000000 0.000000 3.686001 -0.065836 -0.609503 0.127802 0.211513 -12.075017 -1.197061 5.682864 5.997385 0.424012 0.753405 -9.588311 0.000000 0.000000 0.000000 21.231546 10.079174 1.169710 -3.497396 -16.445428 -0.819932 12.262406 8.250334 0.530684 0.000000 0.000000 0.000000 -9.679299 -13.894888 -3.316836 27.390659 12.893635 -0.155438 -19.356157 9.907112 -0.619307 0.000000 0.000000 0.000000 
-0.002245 0.955231 -0.012863 -2.555903 -2.304252 6.813296 1.943994 -0.309888 -3.494747 0.381446 -0.048039 0.163394 0.876785 5.398437 10.661474 0.000000 0.000000 0.000000 0.734504 0.694267 -6.817003 -2.721544 0.396459 1.943042 6.591540 7.498264 12.243312 0.000000 0.000000 0.000000 3.763151 -0.030027 -1.168985 0.446466 0.097652 -11.798943 -0.710833 5.755467 6.010034 -0.181740 1.187856 -9.775386 0.000000 0.000000 0.000000 20.910712 10.508334 1.063004 -3.414409 -16.645965 -0.830129 15.287758 9.038449 0.788426 0.000000 0.000000 0.000000 -7.401043 -13.878542 -3.703681 31.809439 12.029713 -0.237075 -22.145270 13.907080 -1.337547 0.000000 0.000000 0.000000 
-0.001574 0.955215 -0.014412 -2.890873 -2.526408 6.831839 2.316120 -0.307177 -3.499065 0.247280 -0.028947 0.047749 1.010925 5.580027 10.590122 0.000000 0.000000 0.000000 0.799122 0.721373 -7.058242 -2.289292 0.370861 2.357276 6.624490 7.721533 11.948524 0.000000 0.000000 0.000000 3.579251 -0.022635 -1.217718 0.947492 -0.076494 -11.970235 0.328555 5.761147 6.388800 -1.233396 1.864675 -9.574680 0.000000 0.000000 0.000000 20.215519 10.664426 0.810293 -3.853449 -16.297262 -0.806001 18.740481 9.178147 1.054538 0.000000 0.000000 0.000000 -5.221973 -13.471618 -3.917793 36.708419 11.062295 -0.422627 -23.822355 17.744989 -2.131944 0.000000 0.000000 0.000000 
-0.000756 0.955033 -0.015923 -3.096235 -2.638834 7.058427 2.576202 -0.329711 -3.849635 0.073454 -0.011305 0.103608 1.104487 5.696982 10.492503 0.000000 0.000000 0.000000 1.118820 0.798727 -7.700856 -2.249147 0.388676 2.729273 6.259537 6.827901 12.169827 0.000000 0.000000 0.000000 3.463378 -0.008984 -1.398915 1.186062 -0.168510 -11.804103 1.137891 5.571531 6.568998 -2.042319 2.436277 -10.405148 0.000000 0.000000 0.000000 19.357798 11.442368 0.422649 -4.257071 -17.085432 -0.814111 23.129599 9.794292 1.485660 0.000000 0.000000 0.000000 -2.608101 -13.309643 -4.270023 41.376536 9.452253 -0.895184 -24.025503 21.474164 -2.824464 0.000000 0.000000 0.000000 
0.000269 0.955083 -0.017331 -2.992293 -2.524528 7.075931 2.608178 -0.344436 -4.067299 -0.261279 0.022247 0.240362 1.028254 5.584295 10.508943 0.000000 0.000000 0.000000 0.813745 0.851605 -8.241145 -2.267793 0.434234 3.416266 6.568822 7.370255 12.332613 0.000000 0.000000 0.000000 3.233812 0.020600 -1.754035 1.211375 -0.169471 -11.949245 1.897198 5.464193 7.737081 -3.000165 3.104210 -10.755371 0.000000 0.000000 0.000000 18.667774 11.365637 0.195322 -4.657642 -17.824185 -0.836225 25.826297 10.795133 1.893170 0.000000 0.000000 0.000000 -0.313195 -12.872413 -4.507781 45.021830 7.851804 -1.583083 -21.445218 23.136213 -2.670763 0.000000 0.000000 0.000000 
